<svg fill="none" height="50" viewBox="0 0 50 50" width="50" xmlns="http://www.w3.org/2000/svg" xmlns:xlink="http://www.w3.org/1999/xlink"><clipPath id="a"><path d="m2.5 2.5h45v45h-45z"/></clipPath><g clip-path="url(#a)"><path d="m2.5 2.5h45v45h-45z" fill="#f7df1e"/><path d="m14.3322 40.1052 3.4436-2.084c.6644 1.1779 1.2688 2.1746 2.7184 2.1746 1.3896 0 2.2658-.5436 2.2658-2.6579v-14.3785h4.2288v14.4383c0 4.3799-2.5675 6.3737-6.3134 6.3737-3.3829 0-5.3465-1.7521-6.3434-3.8665zm14.9535-.4531 3.4432-1.9936c.9065 1.4803 2.0846 2.5677 4.1687 2.5677 1.7524 0 2.8696-.8761 2.8696-2.0845 0-1.4498-1.1478-1.9634-3.0811-2.8089l-1.0569-.4536c-3.0511-1.2984-5.0748-2.9297-5.0748-6.3733 0-3.1717 2.4164-5.5884 6.1924-5.5884 2.6884 0 4.6216.9366 6.011 3.3833l-3.2927 2.1146c-.7251-1.2988-1.5102-1.8123-2.7185-1.8123-1.2386 0-2.0239.7854-2.0239 1.8123 0 1.2686.7853 1.7824 2.5977 2.5678l1.0571.453c3.5947 1.5407 5.6185 3.1114 5.6185 6.6453 0 3.8063-2.9904 5.8904-7.0079 5.8904-3.9268 0-6.4642-1.8728-7.7025-4.3197" fill="#000"/></g></svg>