<svg fill="none" height="50" viewBox="0 0 50 50" width="50" xmlns="http://www.w3.org/2000/svg"><g fill="#00a0d2"><path d="m25.0001 5.41663c-3.8732 0-7.6595 1.14854-10.8799 3.30038-3.2205 2.15189-5.73053 5.21039-7.21275 8.78869-1.48222 3.5784-1.87003 7.516-1.1144 11.3148.75562 3.7988 2.62075 7.2882 5.35955 10.027 2.7388 2.7387 6.2282 4.6039 10.027 5.3595s7.7363.3678 11.3147-1.1144 6.6369-3.9923 8.7887-7.2127c2.1519-3.2205 3.3004-7.0067 3.3004-10.8799 0-5.1939-2.0632-10.175-5.7358-13.8475-3.6726-3.67264-8.6537-5.73587-13.8475-5.73587z" fill-opacity=".2"/><path d="m25.3053 26.5179-5.2099 15.1358c3.4977 1.03 7.2307.9331 10.6702-.2769-.0483-.076-.0899-.1561-.1243-.2393zm-17.66613-1.5186c-.00057 3.2603.91691 6.455 2.64743 9.2182 1.7305 2.7632 4.204 4.9833 7.1375 6.4061l-8.28196-22.6895c-.99277 2.223-1.50494 4.6306-1.50297 7.0652z"/><path d="m36.7202 24.1238c-.0233-1.6979-.5189-3.3558-1.4313-4.7879-.9331-1.174-1.5233-2.5833-1.7054-4.0719-.0202-.7947.2752-1.5651.8216-2.1425s1.2992-.9149 2.0939-.9386c.077 0 .15.0092.2248.0139-1.8535-1.6978-4.0537-2.97277-6.4483-3.73678-2.3947-.76401-4.9267-.99881-7.421-.68815s-4.8913 1.15936-7.0254 2.48743c-2.1341 1.328-3.9543 3.1037-5.3347 5.2043.4074.013.7914.0211 1.1172.0211 1.8155 0 4.6272-.2208 4.6272-.2208.1876-.0109.372.0523.5135.1759.1416.1236.229.2978.2435.4851.0145.1874-.045.373-.1658.5169s-.2933.2347-.4803.2529c0 0-.941.1101-1.9867.1649l6.3217 18.8052 3.8-11.3944-2.7049-7.4107c-.9354-.0548-1.8208-.1649-1.8208-.1649-.1871-.0181-.3596-.1088-.4805-.2527s-.1805-.3295-.1661-.5169c.0145-.1874.1019-.3616.2434-.4852.1416-.1237.326-.1869.5136-.176 0 0 2.8664.2208 4.572.2208 1.8156 0 4.6278-.2208 4.6278-.2208.1876-.011.3722.0521.5138.1757.1416.1237.2291.2979.2436.4854.0145.1874-.0451.3731-.1661.517-.121.144-.2936.2347-.4807.2527 0 0-.9417.1101-1.9867.1649l6.2739 18.662 1.7909-5.6751c.6994-1.8353 1.1247-3.7636 1.2623-5.7228z"/><path d="m25.0001 4.16663c-4.1205 0-8.1484 1.22185-11.5744 3.51105-3.42601 2.28919-6.09627 5.54292-7.6731 9.34972s-1.98939 7.9957-1.18554 12.0369c.80386 4.0413 2.78805 7.7535 5.70164 10.667 2.9136 2.9136 6.6257 4.8978 10.667 5.7017 4.0413.8038 8.2302.3913 12.037-1.1856 3.8068-1.5768 7.0605-4.247 9.3497-7.6731 2.2892-3.426 3.511-7.4539 3.511-11.5743 0-2.7359-.5388-5.445-1.5858-7.9726s-2.5816-4.8243-4.5161-6.7588c-1.9346-1.93459-4.2312-3.46916-6.7588-4.51613-2.5277-1.04697-5.2367-1.58584-7.9726-1.58584zm16.2394 31.78167c-2.1255 3.1492-5.1188 5.6143-8.6171 7.0965-3.0008 1.2699-6.2714 1.77-9.5145 1.4547-3.2432-.3153-6.3562-1.4358-9.0562-3.26-3.1489-2.1259-5.61394-5.1191-7.09665-8.6172-1.27023-3.0008-1.7704-6.2714-1.45506-9.5146.31534-3.2433 1.43619-6.3563 3.26068-9.0561 2.12553-3.1493 5.11883-5.61435 8.61713-7.09656 3.0008-1.26995 6.2714-1.77 9.5145-1.45474 3.2432.31527 6.3562 1.43587 9.0562 3.25999 3.1489 2.12591 5.6139 5.11921 7.0966 8.61731 1.2703 3.0007 1.7704 6.2713 1.4551 9.5146-.3154 3.2432-1.4362 6.3562-3.2607 9.0561z"/><path d="m40.3516 18.4557c-.0301 2.1391-.4788 4.2516-1.3207 6.2182l-5.3024 15.331c3.911-2.275 6.7794-5.9867 7.9946-10.345 1.2152-4.3582.6813-9.0187-1.4883-12.9891.079.5917.118 1.188.1168 1.7849z"/></g></svg>