<svg fill="none" height="50" viewBox="0 0 50 50" width="50" xmlns="http://www.w3.org/2000/svg"><path d="m3.42188.390625 3.92773 44.094875 17.62419 4.9141 17.6735-4.932 3.9308-44.076975zm34.99652 10.102375-1.3075 14.6894.0039.0793-.0054.1824v-.0015l-.9289 10.2711-.1024.9125-11.0781 3.064v.0004l-.0086.0074-11.059-3.0812-.7488-8.4918h5.423l.3848 4.318 6.0102 1.6289-.0016.0031v-.0008l6.0324-1.6519.6375-7.0317h-12.6105l-.1082-1.1886-.2465-2.7848-.1293-1.4953h13.5738l.4938-5.4688h-20.6742l-.1083-1.1879-.246-2.7855-.1297-1.49532h27.0629z" fill="#1572b6"/></svg>