<svg fill="none" height="50" viewBox="0 0 50 50" width="50" xmlns="http://www.w3.org/2000/svg" xmlns:xlink="http://www.w3.org/1999/xlink"><clipPath id="a"><path d="m2.5 2.5h45v45h-45z"/></clipPath><g clip-path="url(#a)"><path clip-rule="evenodd" d="m25 2.5c12.4267 0 22.5 10.3273 22.5 23.0691 0 10.1902-6.4395 18.8348-15.3743 21.8881-1.1407.2272-1.5457-.4932-1.5457-1.1075 0-.7605.027-3.2444.027-6.3314 0-2.151-.72-3.5549-1.5277-4.2704 5.0107-.5715 10.2757-2.5224 10.2757-11.3829 0-2.52-.873-4.5764-2.3175-6.1919.234-.5828 1.0057-2.9292-.2205-6.1062 0 0-1.8855-.6181-6.1808 2.3654-1.8351-.5116-3.7311-.7732-5.6362-.7768-1.9037.0035-3.7981.2651-5.6317.7768-4.2998-2.9835-6.1898-2.3654-6.1898-2.3654-1.2217 3.177-.45 5.5234-.2182 6.1062-1.4378 1.6155-2.3175 3.6719-2.3175 6.1919 0 8.838 5.2537 10.8189 10.251 11.4016-.6435.576-1.2263 1.5921-1.4288 3.0839-1.2825.5895-4.5405 1.6097-6.5475-1.9161 0 0-1.1902-2.2165-3.44925-2.3785 0 0-2.19375-.0291-.153 1.4019 0 0 1.47375.7087 2.49745 3.375 0 0 1.3208 4.1174 7.5803 2.7224.0113 1.9282.0315 3.7455.0315 4.2945 0 .6098-.414 1.3234-1.5368 1.1097-8.94146-3.0488-15.3877-11.6978-15.3877-21.8903 0-12.7418 10.0755-23.0691 22.5-23.0691" fill="#21bf73" fill-rule="evenodd"/></g></svg>