<svg fill="none" height="50" viewBox="0 0 50 50" width="50" xmlns="http://www.w3.org/2000/svg"><g fill="#61dafb"><path d="m48 25.0418c0-2.9811-3.7332-5.8062-9.4568-7.5581 1.3208-5.8337.7338-10.47494-1.8528-11.96087-.5962-.34855-1.2933-.51366-2.0546-.51366v2.04546c.4219 0 .7613.08255 1.0456.23848 1.2475.71545 1.7886 3.43969 1.3667 6.94349-.1009.8623-.266 1.7703-.4678 2.6967-1.7978-.4402-3.7607-.7796-5.8245-.9997-1.2383-1.697-2.5224-3.2379-3.8157-4.5863 2.9902-2.77922 5.797-4.30185 7.7048-4.30185v-2.04545c-2.5224 0-5.8245 1.7978-9.1632 4.91643-3.3388-3.10029-6.6409-4.87974-9.1633-4.87974v2.04545c1.8987 0 4.7146 1.51346 7.7048 4.27436-1.2841 1.3484-2.5682 2.8801-3.7882 4.5771-2.073.2201-4.0359.5595-5.8337 1.0089-.2109-.9172-.3669-1.807-.4769-2.66-.4311-3.5039.1009-6.22808 1.3392-6.9527.2751-.1651.6329-.23848 1.0548-.23848v-2.04546c-.7705 0-1.4676.16511-2.073.51366-2.5774 1.48593-3.1553 6.11798-1.8253 11.93338-5.70526 1.7611-9.4201 4.577-9.4201 7.5489 0 2.981 3.73318 5.8061 9.4568 7.5581-1.3208 5.8336-.7338 10.4749 1.8528 11.9608.5962.3486 1.2933.5137 2.0638.5137 2.5224 0 5.8245-1.7978 9.1633-4.9164 3.3388 3.1003 6.6408 4.8797 9.1633 4.8797.7704 0 1.4676-.1651 2.0729-.5136 2.5775-1.486 3.1554-6.1181 1.8253-11.9334 5.687-1.7519 9.4018-4.577 9.4018-7.5489zm-11.9425-6.118c-.3394 1.1832-.7613 2.4031-1.2383 3.6231-.3761-.7338-.7705-1.4676-1.2016-2.2014-.4219-.7338-.8714-1.4493-1.3208-2.1464 1.3025.1927 2.5591.4311 3.7607.7247zm-4.201 9.7686c-.7154 1.2383-1.4492 2.4124-2.2106 3.5039-1.3666.1192-2.7517.1834-4.1459.1834-1.385 0-2.7701-.0642-4.1276-.1742-.7613-1.0916-1.5043-2.2565-2.2197-3.4856-.6971-1.2016-1.33-2.4215-1.9079-3.6506.5687-1.2291 1.2108-2.4582 1.8987-3.6598.7155-1.2383 1.4492-2.4124 2.2106-3.5039 1.3667-.1192 2.7517-.1834 4.1459-.1834 1.385 0 2.7701.0642 4.1276.1743.7613 1.0915 1.5043 2.2564 2.2197 3.4855.6971 1.2016 1.33 2.4215 1.9079 3.6506-.5779 1.2291-1.2108 2.4582-1.8987 3.6598zm2.9627-1.1924c.4953 1.2291.9172 2.4582 1.2658 3.6506-1.2016.2936-2.4674.5412-3.779.7338.4494-.7063.8989-1.4309 1.3208-2.1738.4219-.7338.8163-1.4768 1.1924-2.2106zm-9.3009 9.787c-.853-.8806-1.706-1.862-2.5499-2.9352.8255.0367 1.6694.0642 2.5224.0642.8622 0 1.7153-.0183 2.55-.0642-.8256 1.0732-1.6786 2.0546-2.5225 2.9352zm-6.8243-5.4026c-1.3024-.1926-2.5591-.4311-3.7607-.7246.3394-1.1832.7614-2.4032 1.2383-3.6231.3761.7338.7705 1.4676 1.2016 2.2014s.8714 1.4492 1.3208 2.1463zm6.7785-19.0878c.853.8805 1.7061 1.862 2.5499 2.9352-.8255-.0367-1.6694-.0642-2.5224-.0642-.8622 0-1.7152.0183-2.5499.0642.8255-1.0732 1.6785-2.0547 2.5224-2.9352zm-6.7876 5.4025c-.4495.7063-.8989 1.4309-1.3209 2.1739-.4219.7338-.8163 1.4676-1.1924 2.2014-.4953-1.2291-.9172-2.4582-1.2658-3.6506 1.2016-.2844 2.4674-.532 3.7791-.7247zm-8.3011 11.4839c-3.24703-1.385-5.34752-3.2011-5.34752-4.6412s2.10049-3.2654 5.34752-4.6413c.7888-.3394 1.6511-.642 2.5408-.9264.5228 1.7978 1.2107 3.669 2.0638 5.586-.8439 1.9079-1.5226 3.7699-2.0363 5.5585-.9081-.2843-1.7703-.5962-2.5683-.9356zm4.9348 13.1075c-1.2475-.7155-1.7886-3.4397-1.3667-6.9436.1009-.8622.266-1.7703.4678-2.6967 1.7978.4403 3.7607.7797 5.8245.9998 1.2383 1.6969 2.5224 3.2379 3.8157 4.5862-2.9902 2.7793-5.797 4.3019-7.7048 4.3019-.4128-.0092-.7613-.0917-1.0365-.2476zm21.757-6.9894c.4311 3.5038-.1009 6.228-1.3392 6.9527-.2751.1651-.6329.2385-1.0548.2385-1.8987 0-4.7146-1.5135-7.7048-4.2744 1.2841-1.3484 2.5682-2.8801 3.7882-4.5771 2.073-.2201 4.0359-.5595 5.8337-1.0089.2109.9264.376 1.8161.4769 2.6692zm3.5314-6.1181c-.7888.3394-1.651.6421-2.5408.9265-.5228-1.7978-1.2107-3.669-2.0638-5.5861.8439-1.9078 1.5227-3.7698 2.0363-5.5585.9081.2844 1.7703.5962 2.5775.9356 3.247 1.3851 5.3475 3.2012 5.3475 4.6413-.0092 1.4401-2.1096 3.2654-5.3567 4.6412z"/><path d="m25.4909 29.2335c2.315 0 4.1918-1.8768 4.1918-4.1918 0-2.3151-1.8768-4.1918-4.1918-4.1918-2.3151 0-4.1918 1.8767-4.1918 4.1918 0 2.315 1.8767 4.1918 4.1918 4.1918z"/></g></svg>