<svg id="Layer_5" enable-background="new 0 0 64 64" height="512" viewBox="0 0 64 64" width="512" xmlns="http://www.w3.org/2000/svg"><path d="m52 62h-44c-1.105 0-2-.895-2-2v-50h48v50c0 1.105-.895 2-2 2z" fill="#e6e9ed"/><path d="m34 14h16v8h-16z" fill="#ff826e"/><path d="m50.5 33.5-.5.5h-16v-8h16v7z" fill="#ffeaa7"/><path d="m28 16v16c0 1.1-.9 2-2 2h-6-8-6-2c-1.1 0-2-.9-2-2v-16c0-1.1.9-2 2-2h2 20c1.1 0 2 .9 2 2z" fill="#fcd770"/><path d="m6 10v-6c0-1.1.9-2 2-2h44c1.1 0 2 .9 2 2v6z" fill="#b4dd7f"/><path d="m57 39-3 3-15 15-3-3 18-18z" fill="#4fc1e9"/><path d="m51 33 3 3-18 18-3-3 17-17 .5-.5z" fill="#ff826e"/><path d="m62 32.24c0 1.13-.45 2.21-1.24 3l-3.76 3.76-3-3-3-3 3-3 .76-.76c.79-.79 1.87-1.24 3-1.24 1.17 0 2.23.48 3 1.24.76.77 1.24 1.83 1.24 3z" fill="#aab2bd"/><path d="m39 57-7 1 1-7 3 3z" fill="#aab2bd"/><path d="m63 32.243c0-2.891-2.352-5.243-5.242-5.243-.993 0-1.936.286-2.758.798v-23.798c0-1.654-1.346-3-3-3h-44c-1.654 0-3 1.346-3 3v9h-1c-1.654 0-3 1.346-3 3v16c0 1.654 1.346 3 3 3h1v25c0 1.654 1.346 3 3 3h44c1.654 0 3-1.346 3-3v-17.586l6.465-6.465c.99-.99 1.535-2.306 1.535-3.706zm-55-29.243h44c.552 0 1 .449 1 1v5h-46v-5c0-.551.448-1 1-1zm-5 29v-16c0-.551.448-1 1-1h22c.552 0 1 .449 1 1v16c0 .551-.448 1-1 1h-22c-.552 0-1-.449-1-1zm50 28c0 .552-.448 1-1 1h-44c-.552 0-1-.448-1-1v-25h19c1.654 0 3-1.346 3-3v-16c0-1.654-1.346-3-3-3h-19v-2h46v18.586l-2 2v-6.586h-18v10h14.586l-15.528 15.528-1.236 8.65 8.65-1.236 13.528-13.528zm-19.293-6.879 3.172 3.172-3.7.528zm5.293 2.465-1.586-1.586 16.586-16.586 1.586 1.586zm-3-3-1.586-1.586 16.586-16.586 1.586 1.586zm13-19.586h-14v-6h14zm11.051 1.535-3.051 3.051-4.586-4.586 3.051-3.05h.001c.611-.613 1.425-.95 2.292-.95 1.788 0 3.242 1.455 3.242 3.243 0 .854-.346 1.689-.949 2.292z"/><path d="m16 5h2v2h-2z"/><path d="m12 5h2v2h-2z"/><path d="m8 5h2v2h-2z"/><path d="m8.675 23h12.649v1.999h-12.649z" transform="matrix(.317 -.949 .949 .317 -12.514 30.632)"/><path d="m19.293 20.707 3.293 3.293-3.293 3.293 1.414 1.414 4.707-4.707-4.707-4.707z"/><path d="m9.293 19.293-4.707 4.707 4.707 4.707 1.414-1.414-3.293-3.293 3.293-3.293z"/><path d="m51 13h-18v10h18zm-2 8h-14v-6h14z"/><path d="m9 57h16v2h-16z"/><path d="m9 53h20v2h-20z"/><path d="m11 51h2v-2h2v-2h-2v-10h-2v10h-2v2h2z"/><path d="m19 51h2v-10h2v-2h-2v-2h-2v2h-2v2h2z"/><path d="m31 45v-2h-2v-6h-2v6h-2v2h2v6h2v-6z"/><path d="m27 57h2v2h-2z"/><path d="m49 53h2v2h-2z"/><path d="m49 49h2v2h-2z"/><path d="m49 57h2v2h-2z"/></svg>